<svg xmlns="http://www.w3.org/2000/svg" width="146.622" height="168" viewBox="0 0 146.622 168"><defs><style>.a{fill:#fff;}.b{fill:#ff4545;}</style></defs><g transform="translate(-0.831)"><path class="a" d="M480.735,105.573a7.446,7.446,0,0,1-7.546-7.779V73.531a7.55,7.55,0,1,1,15.092,0V97.795a7.413,7.413,0,0,1-7.546,7.779m1.451-32.448a1.456,1.456,0,1,0-2.9,0V98.2a1.456,1.456,0,1,0,2.9,0Z" transform="translate(-457.665 -65.753)"/><path class="a" d="M506.6,105.3h-7.895V66.639H506.6c3.657,0,7.024,2.147,7.024,7.546v23.8c0,5.4-3.367,7.314-7.024,7.314m1.045-31.113c0-1.335-.522-1.974-1.567-1.974h-1.393V99.784h1.393c1.045,0,1.567-.639,1.567-2.031Z" transform="translate(-466.466 -66.059)"/><path class="a" d="M530.973,105.573a7.446,7.446,0,0,1-7.546-7.779V73.531a7.55,7.55,0,1,1,15.092,0V97.795a7.413,7.413,0,0,1-7.546,7.779m1.451-32.448a1.455,1.455,0,1,0-2.9,0V98.2a1.455,1.455,0,1,0,2.9,0Z" transform="translate(-474.993 -65.753)"/><path class="a" d="M555.193,105.573c-4.643,0-7.488-2.9-7.488-8.068V93.441h5.224v4.527c0,1.393.639,2.322,1.974,2.322,1.277,0,1.915-.871,1.915-2.322,0-3.482-1.393-6.211-3.657-10.1-2.264-3.6-5.34-8.939-5.34-13.409,0-4.818,2.5-8.707,7.72-8.707,4.063,0,6.792,2.96,6.792,8.068v4.238h-5.166V73.241c0-1.277-.7-1.974-1.625-1.974a1.757,1.757,0,0,0-1.8,1.974c0,4.469,1.335,6.036,3.773,10.332,2.554,4.354,5.108,8.939,5.108,13.468,0,6.037-3.657,8.533-7.43,8.533" transform="translate(-483.366 -65.753)"/><path class="a" d="M459.086,171.012c-4.3,0-6.907-2.844-6.907-7.43v-8.533h3.947v8.707c0,2.09.871,3.251,2.844,3.251s2.786-1.161,2.786-3.251V131.772h4.121v31.635c0,4.528-2.38,7.6-6.791,7.6" transform="translate(-450.419 -88.523)"/><path class="a" d="M484.656,171.012c-4.237,0-7.314-3.019-7.314-7.779V131.772h4.18v31.694c0,2.38,1.045,3.6,3.192,3.6s3.193-1.219,3.193-3.6V131.772h4.064v31.461c0,4.76-3.135,7.779-7.314,7.779" transform="translate(-459.098 -88.523)"/><path class="a" d="M516.66,170.126l-1.1-2.322c-.871,1.915-2.786,2.9-5.166,2.9-3.715,0-6.733-2.844-6.733-7.952V138.838c0-4.527,2.9-7.952,7.43-7.952s7.023,3.251,7.023,7.952v5.224H514.28v-5.921a3.027,3.027,0,0,0-3.192-3.251,3.119,3.119,0,0,0-3.251,3.309v25.193c0,1.973.987,3.54,3.251,3.54,2.205,0,3.308-1.567,3.308-3.54v-8.824H511.32v-3.657h7.14v19.213Z" transform="translate(-468.174 -88.217)"/><path class="a" d="M539.221,170.431l-1.045-8.359h-5.34l-1.219,8.359H527.67l5.863-38.659h4.354l5.63,38.659Zm-3.6-29.488-2.264,17.24h4.3Z" transform="translate(-476.456 -88.523)"/><path class="a" d="M570.822,170.431V141.176l-.929,6.733-3.541,22.522h-3.889l-3.657-22.522-.929-6.733v29.255h-3.715V131.772h5.979l3.483,23.916.928,6.733.929-6.733,3.425-23.916h5.8v38.659Z" transform="translate(-485.593 -88.523)"/><path class="a" d="M597.3,170.706c-4.528,0-7.43-3.367-7.43-8.068V138.955c0-4.644,2.9-8.069,7.43-8.069s7.43,3.425,7.43,8.069v23.683c0,4.7-2.9,8.068-7.43,8.068m3.308-32.332a3.184,3.184,0,0,0-3.308-3.483c-2.148,0-3.251,1.509-3.251,3.483v24.844c0,2.031,1.1,3.483,3.251,3.483a3.156,3.156,0,0,0,3.308-3.483Z" transform="translate(-497.909 -88.217)"/><path class="a" d="M622.848,170.706c-4.527,0-7.372-3.135-7.372-7.6V158.69h4.064v4.237c0,2.554,1.219,4.238,3.251,4.238,2.322,0,3.367-1.509,3.367-3.948,0-3.715-1.393-6.849-4.412-10.738-2.728-3.483-5.92-8.649-5.92-13.177,0-4.818,2.38-8.417,7.314-8.417,4.179,0,6.907,3.135,6.907,7.662v4.586H626.1V138.9c0-2.67-.986-4.237-3.076-4.237-2.031,0-3.135,1.277-3.135,3.54,0,4.121,1.451,6.734,4.876,11.261,3.367,4.354,5.456,8.417,5.456,12.829,0,6.153-3.831,8.417-7.372,8.417" transform="translate(-506.74 -88.217)"/><path class="a" d="M640.286,192.14v-1.219c1.277,0,1.915-1.045,1.915-3.192h-1.567v-5.8h3.482v5.224c0,2.96-1.045,4.992-3.831,4.992" transform="translate(-515.298 -105.821)"/><path class="b" d="M461.093,202.768v32.8h-5.978v-32.8h-4.354v-5.862h14.686v5.862Z" transform="translate(-449.93 -110.988)"/><path class="b" d="M480.735,235.839a7.446,7.446,0,0,1-7.546-7.779V203.8a7.55,7.55,0,1,1,15.092,0V228.06a7.413,7.413,0,0,1-7.546,7.779m1.451-32.448a1.456,1.456,0,1,0-2.9,0v25.076a1.456,1.456,0,1,0,2.9,0Z" transform="translate(-457.665 -110.682)"/><path class="b" d="M506.6,235.564h-7.895V196.9H506.6c3.657,0,7.024,2.147,7.024,7.546v23.8c0,5.4-3.367,7.314-7.024,7.314m1.045-31.113c0-1.335-.522-1.974-1.567-1.974h-1.393V230.05h1.393c1.045,0,1.567-.639,1.567-2.031Z" transform="translate(-466.466 -110.987)"/><path class="b" d="M530.973,235.839a7.446,7.446,0,0,1-7.546-7.779V203.8a7.55,7.55,0,1,1,15.092,0V228.06a7.413,7.413,0,0,1-7.546,7.779m1.451-32.448a1.455,1.455,0,1,0-2.9,0v25.076a1.455,1.455,0,1,0,2.9,0Z" transform="translate(-474.993 -110.682)"/><path class="b" d="M555.193,235.839c-4.643,0-7.488-2.9-7.488-8.068v-4.064h5.224v4.527c0,1.393.639,2.322,1.974,2.322,1.277,0,1.915-.871,1.915-2.322,0-3.482-1.393-6.211-3.657-10.1-2.264-3.6-5.34-8.94-5.34-13.409,0-4.818,2.5-8.707,7.72-8.707,4.063,0,6.792,2.96,6.792,8.068v4.238h-5.166v-4.818c0-1.277-.7-1.974-1.625-1.974a1.757,1.757,0,0,0-1.8,1.974c0,4.469,1.335,6.036,3.773,10.332,2.554,4.354,5.108,8.939,5.108,13.468,0,6.037-3.657,8.533-7.43,8.533" transform="translate(-483.366 -110.682)"/><path class="b" d="M466.986,300.331l-.755-2.612a6.078,6.078,0,0,1-5.456,3.367c-5.05,0-8.242-3.657-8.242-8.707V269.624c0-4.586,3.831-8.649,9.346-8.649a8.71,8.71,0,0,1,9.113,8.649v6.386h-7.023v-6.5a1.73,1.73,0,0,0-1.974-1.8,1.711,1.711,0,0,0-1.916,1.8v23.161a2,2,0,0,0,4.005,0v-6.327H462.11v-5.224h9.171v19.213Z" transform="translate(-450.541 -133.085)"/><path class="b" d="M493.635,300.7l-.522-6.211H488.7l-.639,6.211H481.33l5.63-38.659h8.592l5.572,38.659ZM491.2,273.416l-1.684,15.034h2.96Z" transform="translate(-460.473 -133.452)"/><path class="a" d="M461.093,72.5v32.8h-5.978V72.5h-4.354V66.639h14.686V72.5Z" transform="translate(-449.93 -66.059)"/><path class="b" d="M525.664,300.7l-4.934-15.847-1.741-5.4V300.7h-6.559V262.038h6.85l4.47,15.847,1.567,5.456v-21.3h6.5V300.7Z" transform="translate(-471.199 -133.452)"/><path class="b" d="M555.038,300.7l-.522-6.211H550.1l-.639,6.211h-6.733l5.63-38.659h8.592l5.572,38.659ZM552.6,273.416l-1.684,15.034h2.96Z" transform="translate(-481.651 -133.452)"/><path class="b" d="M592.67,300.7V272.951l-1.219,9.171-2.67,18.575h-4.76l-2.438-18.575-1.1-9.171V300.7h-6.56V262.038h9.809l2.38,15.151.871,7.836.871-7.836,2.322-15.151h9.636V300.7Z" transform="translate(-492.408 -133.452)"/><path class="b" d="M625.767,301.085c-5.282,0-9.4-3.657-9.4-8.939v-22.29c0-5.282,4.122-8.881,9.4-8.881,5.224,0,9.346,3.6,9.346,8.881v22.29c0,5.283-4.122,8.939-9.346,8.939m1.741-31.694a1.63,1.63,0,0,0-1.741-1.683,1.677,1.677,0,0,0-1.8,1.683V292.61a1.678,1.678,0,0,0,1.8,1.684,1.63,1.63,0,0,0,1.741-1.684Z" transform="translate(-507.046 -133.085)"/><path class="b" d="M655.837,301.085c-5.747,0-9.171-3.367-9.171-9.113v-3.367h6.443v3.6c0,1.567.813,2.612,2.38,2.612,1.509,0,2.264-.928,2.264-2.554,0-3.135-1.857-5.515-4.47-8.765-2.9-3.251-6.443-7.895-6.443-12.712,0-5.282,3.076-9.81,9.346-9.81,4.992,0,8.359,3.6,8.359,9.055V273.4H658.1v-3.831a1.949,1.949,0,0,0-1.916-2.206,2.1,2.1,0,0,0-2.148,2.264c0,3.715,1.858,5.34,4.528,8.881,3.134,3.773,6.385,7.836,6.385,12.828,0,6.095-3.948,9.752-9.114,9.752" transform="translate(-517.498 -133.085)"/></g></svg>