<svg xmlns="http://www.w3.org/2000/svg" width="55.026" height="34.464" viewBox="0 0 55.026 34.464"><defs><style>.a{fill:#ddd;}</style></defs><g transform="translate(-89.55 -484.824)"><path class="a" d="M6.512,0V-14.652H4.6v8.624l-.44-2.046L2.706-14.652H.55V0H2.486V-8.624l.506,2L4.642,0ZM9.9,0V-14.652H7.634V0Zm6.732-14.652H14.52l-.9,9.57-.858-9.57H10.494L12.452,0h2.2ZM21.956,0V-2.178H19.47V-6.534h1.65v-2H19.47v-4h2.486v-2.112H17.2V0Zm5.478,0V-2.112H25.08v-12.54H22.814V0Z" transform="translate(89 506)"/><path class="a" d="M24.576-11.664c0-3.216-.384-6.288-3.168-9.072a9.2,9.2,0,0,0-6.624-2.4,8.308,8.308,0,0,0-4.608,1.344v-5.28h13.68v-7.1H3.024v20.112h7.248a3.122,3.122,0,0,1,3.216-2.448c1.92,0,3.216,1.056,3.216,4.848,0,2.016-.288,3.264-1.008,3.984a2.794,2.794,0,0,1-2.208.864c-2.016,0-2.976-1.344-3.216-3.6H2.4c.192,2.5.528,5.28,2.976,7.728A11.463,11.463,0,0,0,13.488.288a10.939,10.939,0,0,0,7.92-2.928C23.952-5.184,24.576-7.536,24.576-11.664Z" transform="translate(120 519)"/></g></svg>