<svg xmlns="http://www.w3.org/2000/svg" width="55.218" height="34.752" viewBox="0 0 55.218 34.752"><defs><style>.a{fill:#ddd;}</style></defs><g transform="translate(-89.55 -390.536)"><path class="a" d="M6.512,0V-14.652H4.6v8.624l-.44-2.046L2.706-14.652H.55V0H2.486V-8.624l.506,2L4.642,0ZM9.9,0V-14.652H7.634V0Zm6.732-14.652H14.52l-.9,9.57-.858-9.57H10.494L12.452,0h2.2ZM21.956,0V-2.178H19.47V-6.534h1.65v-2H19.47v-4h2.486v-2.112H17.2V0Zm5.478,0V-2.112H25.08v-12.54H22.814V0Z" transform="translate(89 412)"/><path class="a" d="M24.768-10.224a8.4,8.4,0,0,0-3.936-7.44,7.27,7.27,0,0,0,3.552-6.672c0-5.9-4.656-10.128-10.992-10.128C7.3-34.464,2.4-30.576,2.4-24.144h7.872a3.049,3.049,0,0,1,3.12-3.216,3.035,3.035,0,0,1,3.12,3.264,3.048,3.048,0,0,1-3.264,3.216h-1.1v6.816h1.1a3.519,3.519,0,0,1,3.648,3.6c0,2.448-1.44,3.648-3.5,3.648a3.3,3.3,0,0,1-3.5-3.6H2.016c0,7.68,5.712,10.7,11.376,10.7C19.392.288,24.768-3.072,24.768-10.224Z" transform="translate(120 425)"/></g></svg>