<svg xmlns="http://www.w3.org/2000/svg" width="54.978" height="34.464" viewBox="0 0 54.978 34.464"><defs><style>.a{fill:#ddd;}</style></defs><g transform="translate(-228.55 -296.536)"><path class="a" d="M6.512,0V-14.652H4.6v8.624l-.44-2.046L2.706-14.652H.55V0H2.486V-8.624l.506,2L4.642,0ZM9.9,0V-14.652H7.634V0Zm6.732-14.652H14.52l-.9,9.57-.858-9.57H10.494L12.452,0h2.2ZM21.956,0V-2.178H19.47V-6.534h1.65v-2H19.47v-4h2.486v-2.112H17.2V0Zm5.478,0V-2.112H25.08v-12.54H22.814V0Z" transform="translate(228 318)"/><path class="a" d="M24.528,0V-7.1H12.144l8.16-8.64c2.736-2.88,4.224-4.8,4.224-8.4,0-6.432-4.608-10.32-10.944-10.32-5.952,0-11.04,3.7-11.04,10.416h7.872c0-2.64,1.728-3.312,3.168-3.312a2.876,2.876,0,0,1,3.072,3.168c0,1.44-.48,2.3-1.728,3.648L2.544-7.1V0Z" transform="translate(259 331)"/></g></svg>