<svg xmlns="http://www.w3.org/2000/svg" width="187.283" height="91.801" viewBox="0 0 187.283 91.801"><defs><style>.a{fill:#290b6d;}</style></defs><path class="a" d="M33.863-10.613V-21.479H.231v10.867H9.823V18.952H24.271V-10.613ZM69.134,4.079V-6.606c0-10.017-6.739-15.966-17.666-15.966-10.988,0-17.727,5.949-17.727,15.966V4.079c0,10.017,6.739,16.027,17.727,16.027C62.4,20.105,69.134,14.1,69.134,4.079ZM54.443,5.839c0,2.125-.789,3.7-2.975,3.7s-2.975-1.578-2.975-3.7V-8.245c0-2.064.789-3.764,2.975-3.764s2.975,1.7,2.975,3.764Zm51.3-2.307V-5.331c0-9.106-5.524-16.148-17.423-16.148H70.955V18.952H88.318C100.216,18.952,105.741,12.638,105.741,3.532Zm-14.448.546c0,2.732-.911,4.492-3.946,4.492H85.4V-11.22h1.943c3.035,0,3.946,1.882,3.946,4.553Zm50.934,0V-6.606c0-10.017-6.739-15.966-17.666-15.966-10.988,0-17.727,5.949-17.727,15.966V4.079c0,10.017,6.739,16.027,17.727,16.027C135.487,20.105,142.226,14.1,142.226,4.079ZM127.535,5.839c0,2.125-.789,3.7-2.975,3.7s-2.975-1.578-2.975-3.7V-8.245c0-2.064.789-3.764,2.975-3.764s2.975,1.7,2.975,3.764Zm48.323.85c0-13.052-19.123-11.717-19.123-16.877,0-1.578,1.093-2.55,2.975-2.55,2.368,0,3.4,1.882,3.4,3.764v.85h12.506V-9.945c0-7.042-5.282-12.627-15.905-12.627-11.838,0-16.573,6.131-16.573,13.174,0,13.052,19.123,12.263,19.123,16.937,0,1.639-1.093,2.61-3.339,2.61-2.428,0-3.7-1.578-3.7-3.885V5.657H142.711V7.478c0,7.042,5.342,12.627,16.512,12.627C170.88,20.105,175.858,13.731,175.858,6.689ZM17.351,68.622V68.44a29.377,29.377,0,0,1-.789-6.556v-8.2a5.588,5.588,0,0,0-2.853-4.614,5.461,5.461,0,0,0,2.671-4.553V35.293c0-5.282-3.46-7.1-6.556-7.1H1.384V68.622H7.637V51.745H9.155c.85,0,1.336.85,1.336,1.821v8.8c0,2.307.546,6.253,1.518,6.253ZM10.308,44.7c0,1.275-.364,1.7-1.093,1.7H7.637V33.9H9.216c.728,0,1.093.486,1.093,1.7ZM31.253,68.622v-6.01h-6.86V50.592h4.553V45.067H24.393V34.018h6.86V28.19H18.14V68.622ZM47.1,60.3c0-4.735-2.671-9.531-5.342-14.084-2.55-4.492-3.946-6.131-3.946-10.806a1.838,1.838,0,0,1,1.882-2.064c.971,0,1.7.728,1.7,2.064v5.039h5.4V36.022c0-5.342-2.853-8.438-7.1-8.438-5.464,0-8.074,4.067-8.074,9.106,0,4.674,3.217,10.26,5.585,14.023,2.368,4.067,3.825,6.921,3.825,10.563,0,1.518-.668,2.428-2,2.428-1.4,0-2.064-.971-2.064-2.428V56.541H31.5v4.25c0,5.4,2.975,8.438,7.831,8.438C43.273,69.229,47.1,66.618,47.1,60.3Zm16.209-14.63V35.415c0-5.4-3.278-7.224-6.5-7.224h-8.5V68.622h6.253V52.9H56.81C60.028,52.9,63.306,51.016,63.306,45.674Zm-6.01.243c0,1.214-.364,1.7-1.093,1.7H54.564V33.9H56.2c.728,0,1.093.486,1.093,1.7ZM80.061,61.094V35.718a7.9,7.9,0,1,0-15.784,0V61.094a7.9,7.9,0,1,0,15.784,0Zm-6.374.425a1.522,1.522,0,1,1-3.035,0V35.293a1.522,1.522,0,1,1,3.035,0Zm24.465,7.1V28.19H92.871v23.8l-1.214-5.646L87.65,28.19H81.7V68.622h5.342v-23.8l1.4,5.524,4.553,18.273Zm17.484-7.649V36.082c0-5.646-3.521-7.892-7.346-7.892h-8.256V68.622h8.256C112.115,68.622,115.636,66.618,115.636,60.973Zm-6.253-.243c0,1.457-.546,2.125-1.639,2.125h-1.457V34.018h1.457c1.093,0,1.639.668,1.639,2.064Zm21,7.892v-6.01h-6.86V50.592h4.553V45.067h-4.553V34.018h6.86V28.19H117.275V68.622Zm23.251,0V28.19h-8.074l-2,15.905-.789,9.167-.85-9.167L139.737,28.19h-8.2V68.622H137V37.843l.728,9.228,2.307,21.551h4.128l2.61-21.551.85-9.228V68.622Zm17.423-7.528V35.718a7.9,7.9,0,1,0-15.784,0V61.094a7.9,7.9,0,1,0,15.784,0Zm-6.374.425a1.522,1.522,0,1,1-3.035,0V35.293a1.522,1.522,0,1,1,3.035,0ZM187.514,60.3c0-4.735-2.671-9.531-5.342-14.084-2.55-4.492-3.946-6.131-3.946-10.806a1.838,1.838,0,0,1,1.882-2.064c.971,0,1.7.728,1.7,2.064v5.039h5.4V36.022c0-5.342-2.853-8.438-7.1-8.438-5.464,0-8.074,4.067-8.074,9.106,0,4.674,3.217,10.26,5.585,14.023,2.368,4.067,3.825,6.921,3.825,10.563,0,1.518-.668,2.428-2,2.428-1.4,0-2.064-.971-2.064-2.428V56.541h-5.464v4.25c0,5.4,2.975,8.438,7.831,8.438C183.689,69.229,187.514,66.618,187.514,60.3Z" transform="translate(-0.231 22.572)"/></svg>