<svg xmlns="http://www.w3.org/2000/svg" width="40.59" height="38.561" viewBox="0 0 40.59 38.561"><defs><style>.a{fill:#fff;}.b,.c{stroke:none;}.c{fill:#7af99c;}</style></defs><g class="a"><path class="b" d="M 32.06120300292969 37.49211502075195 L 20.55825424194336 30.37543487548828 L 20.29518508911133 30.21267318725586 L 20.0321159362793 30.37543487548828 L 8.529167175292969 37.49211502075195 L 11.75024509429932 24.36601448059082 L 11.82411479949951 24.06498336791992 L 11.58735466003418 23.86493492126465 L 1.258148789405823 15.13740539550781 L 14.75081539154053 14.14126396179199 L 15.05955505371094 14.11847400665283 L 15.1767749786377 13.83194446563721 L 20.29518508911133 1.320517301559448 L 25.41359519958496 13.83193397521973 L 25.53081512451172 14.11846446990967 L 25.83955574035645 14.14125442504883 L 39.33222961425781 15.1374044418335 L 29.00301551818848 23.86493492126465 L 28.76625442504883 24.06498336791992 L 28.84012603759766 24.36601448059082 L 32.06120300292969 37.49211502075195 Z"/><path class="c" d="M 20.29518508911133 2.641029357910156 L 15.63954544067383 14.02126502990723 L 15.40511512756348 14.59432411193848 L 14.78763580322266 14.63991355895996 L 2.51629638671875 15.54588508605957 L 11.91005516052246 23.48301315307617 L 12.38358497619629 23.88311386108398 L 12.2358455657959 24.48517417907715 L 9.306270599365234 36.42338180541992 L 19.7690544128418 29.95023345947266 L 20.29518508911133 29.62472534179688 L 20.82131576538086 29.95023345947266 L 31.28409957885742 36.42338180541992 L 28.35452461242676 24.48517417907715 L 28.20678520202637 23.88311386108398 L 28.6803150177002 23.48301315307617 L 38.07406616210938 15.54588508605957 L 25.802734375 14.6399040222168 L 25.18525505065918 14.59431457519531 L 24.95082473754883 14.02125358581543 L 20.29518508911133 2.641029357910156 M 20.29518508911133 3.814697265625e-06 L 25.87636566162109 13.64261436462402 L 40.59036636352539 14.72893333435059 L 29.32571411132812 24.24685287475586 L 32.83829498291016 38.56084442138672 L 20.29518508911133 30.80063438415527 L 7.7520751953125 38.56084442138672 L 11.2646541595459 24.24685287475586 L -3.814697265625e-06 14.72893333435059 L 14.71400451660156 13.64262390136719 L 20.29518508911133 3.814697265625e-06 Z"/></g></svg>