<svg xmlns="http://www.w3.org/2000/svg" xmlns:xlink="http://www.w3.org/1999/xlink" width="525.997" height="233.287" viewBox="0 0 525.997 233.287"><defs><style>.a{fill:none;}.b,.d{fill:#ff00eb;}.c{fill:#01177d;}.d{stroke:#01177d;stroke-width:3px;}.e{clip-path:url(#e);}.f{fill:#f24ef2;}.g{fill:#89288c;}.h{fill:#cc02c7;}.i{fill:#0e0030;}.j{stroke:none;}.k{filter:url(#c);}.l{filter:url(#a);}</style><filter id="a" x="147.86" y="27.031" width="378.137" height="165.143" filterUnits="userSpaceOnUse"><feOffset dx="4" dy="4" input="SourceAlpha"/><feGaussianBlur stdDeviation="2" result="b"/><feFlood flood-opacity="0.4"/><feComposite operator="in" in2="b"/><feComposite in="SourceGraphic"/></filter><filter id="c" x="0" y="0" width="228.883" height="233.287" filterUnits="userSpaceOnUse"><feOffset dx="4" dy="4" input="SourceAlpha"/><feGaussianBlur stdDeviation="2" result="d"/><feFlood flood-opacity="0.4"/><feComposite operator="in" in2="d"/><feComposite in="SourceGraphic"/></filter><clipPath id="e"><path class="a" d="M848.982,493.032c.124,1.377.255,2.655.349,3.934.247,3.317.2,6.665-1.265,9.686-2.814,5.783-7.8,8.732-14,9.387-3.359.354-5.985-1.569-7.647-4.456-1.2-2.079-2.106-4.327-3.1-6.52a100.427,100.427,0,0,0-8.924-16.013A2.3,2.3,0,0,0,812.347,488c-7.8-.357-15.473-1.306-22.1-5.967-2-1.408-3.786-3.12-5.724-4.626a3.013,3.013,0,0,0-1.794-.707,28.613,28.613,0,0,1-22.5-8.38,3.914,3.914,0,0,0-1.705-.8c-14.466-3.749-23.623-12.861-26.349-27.533-2.326-12.528,1.878-23.212,11.405-31.717a4.339,4.339,0,0,0,1.556-2.63,35.01,35.01,0,0,1,31.785-28.465,3.57,3.57,0,0,0,2.763-1.46,33.148,33.148,0,0,1,40.318-8.6,4.02,4.02,0,0,0,3.262.244c11.486-3.5,21.593-.943,30.332,7.18a5.052,5.052,0,0,0,2.828,1.473c13.765,2.1,23.993,12.334,25.8,26.118a11.666,11.666,0,0,0,2.958,6.775,32.882,32.882,0,0,1,3.633,38.361,5.338,5.338,0,0,0-.611,2.592c.075,12.537-5.232,21.935-16.258,28a3.678,3.678,0,0,0-1.7,1.845c-3.769,8.144-10.312,12.342-19.123,13.23-.368.038-.737.068-1.108.083C849.707,493.043,849.4,493.032,848.982,493.032Z" transform="translate(-731.55 -363.67)"/></clipPath></defs><g transform="translate(2 2)"><g class="l" transform="matrix(1, 0, 0, 1, -2, -2)"><path class="b" d="M0,0H318.5a47.633,47.633,0,0,1,47.633,47.633v105.51a0,0,0,0,1,0,0H0a0,0,0,0,1,0,0V0A0,0,0,0,1,0,0Z" transform="translate(149.86 29.03)"/></g><path class="c" d="M37.53-38.141V-50.1H.525v11.957H11.079v32.53h15.9v-32.53ZM76.339-21.976V-33.732C76.339-44.754,68.925-51.3,56.9-51.3c-12.09,0-19.5,6.546-19.5,17.568v11.756c0,11.021,7.414,17.634,19.5,17.634C68.925-4.342,76.339-10.955,76.339-21.976ZM60.175-20.039c0,2.338-.868,4.075-3.273,4.075s-3.273-1.737-3.273-4.075v-15.5c0-2.271.868-4.141,3.273-4.141s3.273,1.87,3.273,4.141Zm56.443-2.538V-32.33c0-10.02-6.079-17.768-19.171-17.768h-19.1V-5.611h19.1C110.539-5.611,116.618-12.558,116.618-22.577Zm-15.9.6c0,3.006-1,4.943-4.342,4.943H94.241V-38.809h2.137c3.34,0,4.342,2.071,4.342,5.01Zm56.043,0V-33.732c0-11.021-7.414-17.568-19.438-17.568-12.09,0-19.5,6.546-19.5,17.568v11.756c0,11.021,7.414,17.634,19.5,17.634C149.348-4.342,156.763-10.955,156.763-21.976ZM140.6-20.039c0,2.338-.868,4.075-3.273,4.075s-3.273-1.737-3.273-4.075v-15.5c0-2.271.868-4.141,3.273-4.141s3.273,1.87,3.273,4.141Zm53.17.935c0-14.361-21.041-12.892-21.041-18.57,0-1.737,1.2-2.805,3.273-2.805,2.605,0,3.741,2.071,3.741,4.141v.935H193.5v-2c0-7.748-5.811-13.894-17.5-13.894-13.025,0-18.236,6.746-18.236,14.495,0,14.361,21.041,13.493,21.041,18.636,0,1.8-1.2,2.872-3.674,2.872-2.672,0-4.075-1.737-4.075-4.275v-.668H157.3v2c0,7.748,5.878,13.894,18.169,13.894C188.291-4.342,193.768-11.355,193.768-19.1ZM18.226,40.434V32.82H12.348v7.815a1.846,1.846,0,0,1-2,2.071c-1.4,0-1.937-.868-1.937-2.071V12.313c0-1.2.534-2.071,1.937-2.071a1.846,1.846,0,0,1,2,2.071v7.815h5.878V12.513c0-5.277-2.872-8.951-7.949-8.951a8.78,8.78,0,0,0-8.884,9.151v27.52a8.742,8.742,0,0,0,8.884,9.151C15.354,49.385,18.226,45.778,18.226,40.434Zm18.436,0V12.513a8.688,8.688,0,1,0-17.367,0V40.434a8.568,8.568,0,0,0,8.684,8.951A8.53,8.53,0,0,0,36.662,40.434Zm-7.014.468a1.675,1.675,0,1,1-3.34,0V12.046a1.675,1.675,0,1,1,3.34,0Zm26.919,7.815V4.23H50.756V30.415L49.42,24.2,45.012,4.23H38.466V48.717h5.878V22.533l1.536,6.079,5.01,20.106Zm18.5-8.283V32.82H69.192v7.815a1.846,1.846,0,0,1-2,2.071c-1.4,0-1.937-.868-1.937-2.071V12.313c0-1.2.534-2.071,1.937-2.071a1.846,1.846,0,0,1,2,2.071v7.815H75.07V12.513c0-5.277-2.872-8.951-7.949-8.951a8.78,8.78,0,0,0-8.884,9.151v27.52a8.742,8.742,0,0,0,8.884,9.151C72.2,49.385,75.07,45.778,75.07,40.434ZM90.9,48.717V42.1H83.353V28.879h5.01V22.8h-5.01V10.643H90.9V4.23H76.473V48.717Zm19.3,0V4.23h-5.811V30.415L103.058,24.2,98.65,4.23H92.1V48.717h5.878V22.533l1.536,6.079,5.01,20.106Zm17.5-37.74V4.23h-16.9v6.746h5.01v37.74h6.88V10.977Zm18.236,37.74v-.2a32.323,32.323,0,0,1-.868-7.214V32.285a6.148,6.148,0,0,0-3.139-5.077,6.009,6.009,0,0,0,2.939-5.01V12.046c0-5.811-3.807-7.815-7.214-7.815h-9.285V48.717h6.88V30.148h1.67c.935,0,1.47.935,1.47,2v9.686c0,2.538.6,6.88,1.67,6.88ZM138.193,22.4c0,1.4-.4,1.87-1.2,1.87h-1.737V10.509h1.737c.8,0,1.2.534,1.2,1.87Zm25.182,26.318L158.1,4.23h-7.815l-5.277,44.487h6.212l.668-7.615h4.075l.4,7.615Zm-7.949-13.961h-2.872l1.67-18.436Zm25.65,5.544V12.914c0-6.212-3.874-8.684-8.082-8.684H163.91V48.717h9.084C177.2,48.717,181.077,46.513,181.077,40.3Zm-6.88-.267c0,1.6-.6,2.338-1.8,2.338h-1.6V10.643h1.6c1.2,0,1.8.735,1.8,2.271Zm25.717.4V12.513a8.688,8.688,0,1,0-17.367,0V40.434a8.688,8.688,0,1,0,17.367,0ZM192.9,40.9a1.675,1.675,0,1,1-3.34,0V12.046a1.675,1.675,0,1,1,3.34,0Zm25.116-1.336c0-5.21-2.939-10.487-5.878-15.5-2.805-4.943-4.342-6.746-4.342-11.89a2.022,2.022,0,0,1,2.071-2.271c1.069,0,1.87.8,1.87,2.271v5.544h5.945V12.847c0-5.878-3.139-9.285-7.815-9.285-6.012,0-8.884,4.475-8.884,10.02,0,5.143,3.54,11.289,6.145,15.43,2.605,4.475,4.208,7.615,4.208,11.623,0,1.67-.735,2.672-2.2,2.672-1.536,0-2.271-1.069-2.271-2.672v-5.21h-6.012V40.1c0,5.945,3.273,9.285,8.617,9.285C213.807,49.385,218.016,46.513,218.016,39.566Z" transform="translate(239.551 101.999)"/><g class="k" transform="matrix(1, 0, 0, 1, -2, -2)"><g class="d" transform="translate(2 2)"><ellipse class="j" cx="108.442" cy="110.644" rx="108.442" ry="110.644"/><ellipse class="a" cx="108.442" cy="110.644" rx="106.942" ry="109.144"/></g></g><g transform="translate(26.165 47.928)"><g class="e"><g transform="translate(-55.88 -45.065)"><ellipse class="f" cx="88.024" cy="88.024" rx="88.024" ry="88.024"/><ellipse class="g" cx="88.024" cy="88.024" rx="88.024" ry="88.024" transform="translate(62.705 84.334)"/><ellipse class="h" cx="88.024" cy="88.024" rx="88.024" ry="88.024" transform="translate(128.892 6.287)"/></g></g><path class="i" d="M848.982,493.032c.124,1.377.255,2.655.349,3.934.247,3.317.2,6.665-1.265,9.686-2.814,5.783-7.8,8.732-14,9.387-3.359.354-5.985-1.569-7.647-4.456-1.2-2.079-2.106-4.327-3.1-6.52a100.427,100.427,0,0,0-8.924-16.013A2.3,2.3,0,0,0,812.347,488c-7.8-.357-15.473-1.306-22.1-5.967-2-1.408-3.786-3.12-5.724-4.626a3.013,3.013,0,0,0-1.794-.707,28.613,28.613,0,0,1-22.5-8.38,3.914,3.914,0,0,0-1.705-.8c-14.466-3.749-23.623-12.861-26.349-27.533-2.326-12.528,1.878-23.212,11.405-31.717a4.339,4.339,0,0,0,1.556-2.63,35.01,35.01,0,0,1,31.785-28.465,3.57,3.57,0,0,0,2.763-1.46,33.148,33.148,0,0,1,40.318-8.6,4.02,4.02,0,0,0,3.262.244c11.486-3.5,21.593-.943,30.332,7.18a5.052,5.052,0,0,0,2.828,1.473c13.765,2.1,23.993,12.334,25.8,26.118a11.666,11.666,0,0,0,2.958,6.775,32.882,32.882,0,0,1,3.633,38.361,5.338,5.338,0,0,0-.611,2.592c.075,12.537-5.232,21.935-16.258,28a3.678,3.678,0,0,0-1.7,1.845c-3.769,8.144-10.312,12.342-19.123,13.23-.368.038-.737.068-1.108.083C849.707,493.043,849.4,493.032,848.982,493.032Zm23.193-91.724c-.077-.325-.159-.767-.286-1.2a20.328,20.328,0,0,0-18.27-14.568,7.616,7.616,0,0,1-5.745-2.8,19.461,19.461,0,0,0-18.565-6.872c-4.582.682-8.42,2.631-10.33,7.2a23.342,23.342,0,0,0-1.014,3.458,4.894,4.894,0,1,1-9.571-2.006,23.453,23.453,0,0,1,3.642-8.953c.19-.281.328-.6.5-.915-9.422-3.471-20.767.322-26.593,9a6.725,6.725,0,0,1-6.273,3.211,25.268,25.268,0,0,0-24.53,18.6c-1.6,5.627.123,10.225,4.112,14.123a22.172,22.172,0,0,0,3.927,2.479c1.012-1.894,1.893-3.466,2.7-5.074,2.956-5.843,6.933-10.626,13.276-13.023,4.483-1.693,9.133-1.894,13.848-1.706a3.663,3.663,0,0,0,2.141-.63c5.486-4,11.672-4.745,18.158-3.9a4.683,4.683,0,0,1,3.994,5.193,4.832,4.832,0,0,1-5.035,4.393c-1.158-.014-2.317-.162-3.474-.146-6.682.085-10.836,3.384-11.764,9.635a4.77,4.77,0,0,1-5.539,4.074,4.948,4.948,0,0,1-4.06-5.725c.13-1,.371-1.985.589-3.126-4.447.206-8.169,1.649-10.835,5.2-1.023,1.363-1.793,2.916-2.689,4.376a66.835,66.835,0,0,1-4.272,6.808,8.4,8.4,0,0,1-9.131,2.911,18.553,18.553,0,0,1-10.143-6.218c-1.572-1.894-2.832-4.046-4.242-6.1-.145.176-.355.42-.55.676-10.895,14.309-2.22,35.815,15.575,38.514a8.163,8.163,0,0,1,5.082,2.79,18.863,18.863,0,0,0,21.808,4.258,9.356,9.356,0,0,0,4.43-4.6c-.555-.289-.964-.5-1.372-.714a28.811,28.811,0,0,1-8.031-6.136,4.777,4.777,0,0,1-1.012-5.171,4.607,4.607,0,0,1,3.966-3.075c2.056-.274,3.454.91,4.856,2.226,5.467,5.127,11.635,7.256,18.972,4.291a4.794,4.794,0,0,1,6.5,2.507,4.888,4.888,0,0,1-2.834,6.5,23.688,23.688,0,0,1-10.275,2.073,1.49,1.49,0,0,0-1.661,1.069,18.778,18.778,0,0,1-5.887,7.624c-.541.426-1.094.835-1.737,1.322.618.424,1.135.8,1.677,1.146,4.518,2.842,9.554,3.642,14.769,3.78,9.219.242,17-2.735,22.892-10.073,1.666-2.075,3.883-2.49,6.36-1.3a42.689,42.689,0,0,0,15.967,4.453c6.753.421,12.679-1.363,17.251-6.614a19.094,19.094,0,0,0,4.593-9.571,5.109,5.109,0,0,0-.649.031c-6.468,1.261-12.308-.516-17.8-3.779a4.442,4.442,0,0,1-2.09-4.8,4.558,4.558,0,0,1,3.368-3.865,4.874,4.874,0,0,1,4.015.52,17.361,17.361,0,0,0,7.454,2.506c3.349.207,6.731-.278,8.772-4.544a23.527,23.527,0,0,0-4.381-27,6.428,6.428,0,0,0-2.3-1.719c-6.592-2.094-13.067-2.685-19.138,1.693a4.584,4.584,0,0,1-6.1-.666c-.465-.453-.891-.948-1.375-1.379a12.6,12.6,0,0,0-9.59-3.276c-3.345.217-5.643-2.054-5.446-5.2.157-2.532,2.208-4.367,5.1-4.547a21.515,21.515,0,0,1,14.393,4.165,1.68,1.68,0,0,0,1.995.244,20.955,20.955,0,0,1,8.7-2.223C866.011,401.068,869.054,401.242,872.175,401.308Zm-47.5,84.938c3.305,6.514,6.671,13.149,10.038,19.786,4.653-2.164,5.1-2.942,4.967-7.094-.2-6.452-2.065-12.554-4.091-18.375Zm20.775-7.011a24.322,24.322,0,0,0,.852,2.671,1.806,1.806,0,0,0,1,.93c3.309.879,6.35.152,9.508-1.74-2.134-.259-3.962-.421-5.77-.718S847.445,479.649,845.451,479.236Z" transform="translate(-731.55 -363.67)"/><path class="i" d="M817.516,419.742c-2.221-.605-4.461-1.151-6.652-1.849a1.419,1.419,0,0,0-1.695.31c-5.863,5.651-15.175,5.775-21.792,2.185a4.789,4.789,0,0,1-1.847-6.412,4.844,4.844,0,0,1,6.023-2.339,25.167,25.167,0,0,0,4.792,1.325,7.213,7.213,0,0,0,7.589-3.788c2.051-3.466,4.67-3.958,8.048-1.792a22.428,22.428,0,0,0,4.365,2.067c1.878.69,3.469-.069,4.75-1.455a14.474,14.474,0,0,0,1.629-2.245,4.785,4.785,0,0,1,6.452-2,4.887,4.887,0,0,1,2.1,6.672C828.572,415.857,822.889,419.607,817.516,419.742Z" transform="translate(-700.988 -341.08)"/></g></g></svg>