<svg xmlns="http://www.w3.org/2000/svg" xmlns:xlink="http://www.w3.org/1999/xlink" width="526.476" height="227" viewBox="0 0 526.476 227"><defs><style>.a{fill:none;}.b,.c{fill:#ff4545;}.c{stroke:#1e2479;stroke-width:3px;}.d{fill:#16205b;}.e{fill:#102054;}.f{fill:#253784;}.g{clip-path:url(#e);}.h{fill:#0c36bc;}.i{fill:#1e2479;}.j{stroke:none;}.k{filter:url(#c);}.l{filter:url(#a);}</style><filter id="a" x="0" y="23.746" width="378.137" height="165.143" filterUnits="userSpaceOnUse"><feOffset dx="4" dy="4" input="SourceAlpha"/><feGaussianBlur stdDeviation="2" result="b"/><feFlood flood-opacity="0.4"/><feComposite operator="in" in2="b"/><feComposite in="SourceGraphic"/></filter><filter id="c" x="297.476" y="0" width="229" height="227" filterUnits="userSpaceOnUse"><feOffset dx="4" dy="4" input="SourceAlpha"/><feGaussianBlur stdDeviation="2" result="d"/><feFlood flood-opacity="0.4"/><feComposite operator="in" in2="d"/><feComposite in="SourceGraphic"/></filter><clipPath id="e"><path class="a" d="M1257.818,366.588a51.643,51.643,0,1,1-51.671,51.494A51.708,51.708,0,0,1,1257.818,366.588ZM1246.067,422.3c-.934,2.88-1.888,5.666-2.734,8.483a4.419,4.419,0,0,0,1.911,5.06,4.7,4.7,0,0,0,5.652-.282c2.32-1.654,4.616-3.341,6.9-5,2.382,1.765,4.623,3.48,6.925,5.114,3.01,2.137,6.823.836,7.574-2.624a6.02,6.02,0,0,0-.244-2.83c-.776-2.652-1.683-5.266-2.541-7.9.528-.377.971-.695,1.418-1.007,1.865-1.3,3.774-2.549,5.586-3.921,2.66-2.015,2.839-5.478.273-7.45a6.369,6.369,0,0,0-3.387-1.06c-2.806-.149-5.625-.049-8.413-.049-.884-2.75-1.712-5.355-2.558-7.955-.791-2.429-2.448-3.735-4.676-3.718-2.183.019-3.806,1.309-4.582,3.671-.734,2.239-1.5,4.47-2.155,6.73-.274.938-.628,1.352-1.7,1.3a70.3,70.3,0,0,0-7.2.011,6.283,6.283,0,0,0-3.178.96c-2.733,1.964-2.547,5.609.307,7.689C1241.448,419.143,1243.723,420.668,1246.067,422.3Z" transform="translate(-1206.147 -366.588)"/></clipPath></defs><g transform="translate(2 2.141)"><g class="l" transform="matrix(1, 0, 0, 1, -2, -2.14)"><path class="b" d="M47.633,0h318.5a0,0,0,0,1,0,0V153.143a0,0,0,0,1,0,0H0a0,0,0,0,1,0,0V47.633A47.633,47.633,0,0,1,47.633,0Z" transform="translate(2 25.75)"/></g><g class="k" transform="matrix(1, 0, 0, 1, -2, -2.14)"><g class="c" transform="translate(299.48 2)"><ellipse class="j" cx="108.5" cy="107.5" rx="108.5" ry="107.5"/><ellipse class="a" cx="108.5" cy="107.5" rx="107" ry="106"/></g></g><g transform="translate(340.543 41.855)"><path class="d" d="M1257.818,366.588a51.643,51.643,0,1,1-51.671,51.494A51.708,51.708,0,0,1,1257.818,366.588ZM1246.067,422.3c-.934,2.88-1.888,5.666-2.734,8.483a4.419,4.419,0,0,0,1.911,5.06,4.7,4.7,0,0,0,5.652-.282c2.32-1.654,4.616-3.341,6.9-5,2.382,1.765,4.623,3.48,6.925,5.114,3.01,2.137,6.823.836,7.574-2.624a6.02,6.02,0,0,0-.244-2.83c-.776-2.652-1.683-5.266-2.541-7.9.528-.377.971-.695,1.418-1.007,1.865-1.3,3.774-2.549,5.586-3.921,2.66-2.015,2.839-5.478.273-7.45a6.369,6.369,0,0,0-3.387-1.06c-2.806-.149-5.625-.049-8.413-.049-.884-2.75-1.712-5.355-2.558-7.955-.791-2.429-2.448-3.735-4.676-3.718-2.183.019-3.806,1.309-4.582,3.671-.734,2.239-1.5,4.47-2.155,6.73-.274.938-.628,1.352-1.7,1.3a70.3,70.3,0,0,0-7.2.011,6.283,6.283,0,0,0-3.178.96c-2.733,1.964-2.547,5.609.307,7.689C1241.448,419.143,1243.723,420.668,1246.067,422.3Z" transform="translate(-1192.041 -366.588)"/><path class="e" d="M1213.952,428.827a60.292,60.292,0,0,0,29.028,20.551c-2.668,6.272-5.3,12.495-7.966,18.7a4.683,4.683,0,0,1-8.893-.279c-1.869-5.14-3.84-10.25-5.5-15.459-.755-2.375-1.724-3.516-4.431-3.578-5.086-.117-10.161-.706-15.238-1.123a4.8,4.8,0,0,1-4.527-3.734,4.649,4.649,0,0,1,2.273-5.058C1203.728,435.534,1208.764,432.236,1213.952,428.827Z" transform="translate(-1196.297 -339.688)"/><path class="f" d="M1255.458,449.428c3.2-1.448,6.391-2.746,9.45-4.3a57.716,57.716,0,0,0,18.74-15.327c.626-.772,1.047-.921,1.928-.331,4.619,3.094,9.291,6.108,13.935,9.166,2.078,1.368,2.922,3.29,2.406,5.364a5.02,5.02,0,0,1-4.695,3.588c-5.627.434-11.254.869-16.884,1.245a1.768,1.768,0,0,0-1.809,1.363c-2.011,5.716-4.08,11.412-6.129,17.115-.858,2.392-2.349,3.659-4.408,3.737-2.17.08-3.792-1.06-4.792-3.414q-3.235-7.611-6.451-15.231C1256.324,451.394,1255.881,450.4,1255.458,449.428Z" transform="translate(-1170.728 -339.568)"/><g transform="translate(14.106 0)"><g class="g"><g transform="translate(-52.844 -33.067)"><ellipse class="f" cx="52.634" cy="52.634" rx="52.634" ry="52.634"/><ellipse class="h" cx="52.634" cy="52.634" rx="52.634" ry="52.634" transform="translate(80.204 10.025)"/><ellipse class="e" cx="52.634" cy="52.634" rx="52.634" ry="52.634" transform="translate(37.237 74.475)"/></g></g></g></g><path class="i" d="M33.027-33.564V-44.086H.462v10.522H9.749V-4.938h13.99V-33.564ZM67.179-19.339V-29.685c0-9.7-6.525-15.459-17.105-15.459-10.639,0-17.164,5.761-17.164,15.459v10.346c0,9.7,6.525,15.518,17.164,15.518C60.654-3.821,67.179-9.64,67.179-19.339Zm-14.225,1.7c0,2.057-.764,3.586-2.88,3.586s-2.88-1.528-2.88-3.586V-31.272c0-2,.764-3.644,2.88-3.644s2.88,1.646,2.88,3.644Zm49.67-2.234V-28.45c0-8.817-5.349-15.636-16.87-15.636H68.942V-4.938H85.754C97.275-4.938,102.624-11.051,102.624-19.868Zm-13.99.529c0,2.645-.882,4.35-3.821,4.35H82.932V-34.152h1.881c2.939,0,3.821,1.822,3.821,4.409Zm49.317,0V-29.685c0-9.7-6.525-15.459-17.105-15.459-10.639,0-17.164,5.761-17.164,15.459v10.346c0,9.7,6.525,15.518,17.164,15.518C131.427-3.821,137.951-9.64,137.951-19.339Zm-14.225,1.7c0,2.057-.764,3.586-2.88,3.586s-2.88-1.528-2.88-3.586V-31.272c0-2,.764-3.644,2.88-3.644s2.88,1.646,2.88,3.644Zm46.79.823C170.516-29.449,152-28.156,152-33.153c0-1.528,1.058-2.469,2.88-2.469,2.292,0,3.292,1.822,3.292,3.644v.823h12.109v-1.763c0-6.819-5.114-12.227-15.4-12.227-11.462,0-16.047,5.937-16.047,12.756,0,12.638,18.516,11.874,18.516,16.4,0,1.587-1.058,2.528-3.233,2.528-2.351,0-3.586-1.528-3.586-3.762v-.588H138.422v1.763c0,6.819,5.173,12.227,15.989,12.227C165.7-3.821,170.516-9.993,170.516-16.811Z" transform="translate(71.188 95.013)"/><path class="i" d="M23.366-19.007c0-6.738-3.8-13.563-7.6-20.043-3.628-6.393-5.615-8.725-5.615-15.378a2.616,2.616,0,0,1,2.678-2.937c1.382,0,2.419,1.037,2.419,2.937v7.17h7.689v-6.307c0-7.6-4.06-12.008-10.108-12.008-7.775,0-11.49,5.788-11.49,12.959,0,6.652,4.579,14.6,7.948,19.956,3.369,5.788,5.443,9.849,5.443,15.032,0,2.16-.95,3.456-2.851,3.456-1.987,0-2.937-1.382-2.937-3.456v-6.738H1.164v6.047c0,7.689,4.233,12.008,11.144,12.008C17.924-6.308,23.366-10.023,23.366-19.007ZM46.346-7.172,39.521-64.708H29.414L22.589-7.172h8.034l.864-9.849h5.27l.518,9.849ZM36.066-25.228H32.351l2.16-23.844Zm32.31,8.121V-29.461a7.26,7.26,0,0,0-4.233-7,7.182,7.182,0,0,0,4.233-7V-54.773c0-7.516-4.751-9.935-9.071-9.935H47.037V-7.172H59.3C63.624-7.172,68.376-9.591,68.376-17.107ZM59.823-42.333c0,1.728-.518,2.505-1.641,2.505H55.936v-16.76h2.246c1.123,0,1.641.691,1.641,2.419Zm0,24.708c0,1.728-.518,2.419-1.641,2.419H55.936V-32.484h2.246c1.123,0,1.641.778,1.641,2.505ZM89.282-7.172v-8.553H79.52V-32.83H86v-7.862H79.52V-56.415h9.762v-8.293H70.622V-7.172Zm33.088,0V-64.708H110.88l-2.851,22.634-1.123,13.045L105.7-42.074l-3.11-22.634H90.924V-7.172H98.7v-43.8l1.037,13.131,3.283,30.669h5.875l3.715-30.669,1.209-13.131v43.8Zm24.794-10.712V-54c0-6.825-4.924-11.576-11.231-11.576-6.22,0-11.231,4.751-11.231,11.576v36.111c0,6.911,5.011,11.576,11.231,11.576C142.24-6.308,147.164-10.973,147.164-17.884Zm-9.071.6a2.092,2.092,0,0,1-2.16,2.333,2.092,2.092,0,0,1-2.16-2.333V-54.6a2.092,2.092,0,0,1,2.16-2.333,2.092,2.092,0,0,1,2.16,2.333Zm32.483-1.728c0-6.738-3.8-13.563-7.6-20.043-3.628-6.393-5.615-8.725-5.615-15.378a2.616,2.616,0,0,1,2.678-2.937c1.382,0,2.419,1.037,2.419,2.937v7.17h7.689v-6.307c0-7.6-4.06-12.008-10.108-12.008-7.775,0-11.49,5.788-11.49,12.959,0,6.652,4.579,14.6,7.948,19.956,3.369,5.788,5.443,9.849,5.443,15.032,0,2.16-.95,3.456-2.851,3.456-1.987,0-2.937-1.382-2.937-3.456v-6.738h-7.775v6.047c0,7.689,4.233,12.008,11.144,12.008C165.133-6.308,170.576-10.023,170.576-19.007Z" transform="translate(75.903 164.25)"/></g></svg>