<svg xmlns="http://www.w3.org/2000/svg" width="129.26" height="168.502" viewBox="0 0 129.26 168.502"><defs><style>.a,.b{fill:#fff;}.a{stroke:#fff;}</style></defs><g transform="translate(-112.171 -61.498)"><path class="a" d="M20.2-9.986v-20.2c0-5.682-3.214-9.125-8.724-9.125h-9.3V-1.09h9.3C16.99-1.09,20.2-4.247,20.2-9.986ZM14.12-10.1c0,2.353-.918,3.616-3.042,3.616H8.267V-33.861h2.812c2.123,0,3.042,1.205,3.042,3.616ZM41.382-1.09l-6.37-38.223H28.3L21.926-1.09h5.567l1.148-7.461h5.567l.976,7.461ZM33.519-13.659H29.387L31.625-29.27ZM58.484-33.746v-5.567H40.693v5.567H46.6V-1.09h6.084V-33.746ZM78.686-9.47V-30.934c0-5.28-3.616-9.068-9.125-9.068s-9.125,3.788-9.125,9.068V-9.47c0,5.337,3.616,9.068,9.125,9.068S78.686-4.132,78.686-9.47Zm-6.141.459a2.834,2.834,0,0,1-2.984,3.1,2.834,2.834,0,0,1-2.984-3.1V-31.393a2.834,2.834,0,0,1,2.984-3.1,2.834,2.834,0,0,1,2.984,3.1Zm26.974-.8c0-4.821-2.755-8.666-6.485-12.511-3.558-3.788-5.223-5.624-5.223-9.355a2.834,2.834,0,0,1,2.984-3.1c1.951,0,2.927,1.435,2.927,3.558v3.444h5.51v-3.444C99.232-36.444,95.9-40,90.8-40c-5.911,0-8.9,4.19-8.9,9.355,0,4.878,3.673,9.355,6.83,12.511,3.214,3.386,4.878,5.854,4.878,9.183,0,2.123-1.033,3.444-3.214,3.444-2.123,0-3.214-1.377-3.214-3.788v-3.271H81.613v3.386c0,5.395,3.444,8.781,8.953,8.781C95.559-.4,99.519-3.73,99.519-9.814Z" transform="translate(110.488 102)"/><path class="b" d="M19.643-24.659v-6.772c0-5.28-2.812-7.863-7.69-7.863h-9.3V-1.071H7.419V-16.854h4.534C16.831-16.854,19.643-19.436,19.643-24.659Zm-4.821.287c0,2.123-.8,3.386-2.812,3.386H7.419v-14H12.01c2.009,0,2.812,1.148,2.812,3.329Zm24.621,23.3L32.327-39.294h-5.05L20.1-1.071h4.534l1.607-8.781h6.772l1.55,8.781ZM32.269-14.1h-5.28l2.7-16.357ZM60.965-.727V-4.113c-.976,0-1.32-.459-1.32-1.492v-8.15c0-2.755-1.263-5.337-4.247-5.969,3.042-.746,4.075-2.812,4.075-6.084v-5.8c0-5.28-2.755-7.69-7.633-7.69H42.485V-1.071h4.821V-17.83h4.3c2.238,0,3.271,1.492,3.271,3.788v8.724c0,3.558,1.32,4.591,4.821,4.591ZM54.709-25.405c0,2.41-1.263,3.73-3.386,3.73H47.306V-34.99h4.477c2.066,0,2.927,1.205,2.927,3.214Zm25.31-9.47v-4.419H62.4v4.419h6.485v33.8h4.764v-33.8Zm8.092,33.8V-39.294H83.29V-1.071Zm14.118-15.9v-3.9H91.956v3.9Z" transform="translate(109.989 187.582)"/><path class="b" d="M19.919-9.24v-5.28H15.672v5.395c0,2.64-1.492,4.362-4.3,4.362-2.87,0-4.362-1.779-4.362-4.19v-22.5a3.993,3.993,0,0,1,4.362-4.19,4,4,0,0,1,4.3,4.362v5.337h4.247v-5.223c0-4.993-2.87-8.838-8.724-8.838s-8.953,4.19-8.953,9.183V-9.584C2.242-4.534,5.341-.4,11.2-.4S19.919-4.247,19.919-9.24Zm9.01,8.15V-39.313H24.108V-1.09ZM51.082-24.678v-6.772c0-5.28-2.812-7.863-7.69-7.863h-9.3V-1.09h4.764V-16.873h4.534C48.27-16.873,51.082-19.456,51.082-24.678Zm-4.821.287c0,2.123-.8,3.386-2.812,3.386H38.858v-14h4.591c2.009,0,2.812,1.148,2.812,3.329ZM70.882-1.09,63.766-39.313h-5.05L51.541-1.09h4.534l1.607-8.781h6.772L66-1.09ZM63.708-14.118h-5.28l2.7-16.357ZM92.347-1.09V-39.313H87.813v25.769L85.46-20.03,77.942-39.313H73.867V-1.09H78.4V-26.515l2.525,6.428,7.977,19Zm20.833-33.8v-4.419H95.561v4.419h6.485v33.8h4.764v-33.8Zm18.251,33.8V-5.452H121.215v-13.43h7.4v-4.19h-7.4v-11.88h10.216v-4.362H116.451V-1.09Z" transform="translate(110 230.402)"/><path class="a" d="M20.2-9.967v-20.2c0-5.682-3.214-9.125-8.724-9.125h-9.3V-1.071h9.3C16.99-1.071,20.2-4.228,20.2-9.967Zm-6.084-.115c0,2.353-.918,3.616-3.042,3.616H8.267V-33.842h2.812c2.123,0,3.042,1.205,3.042,3.616Zm25.252,9.01V-6.638H30.19V-18.289h6.37v-5.05H30.19V-33.9h9.183v-5.395H24.107V-1.071Zm18.136,0v-5.51H48.728V-39.294H42.644V-1.071Z" transform="translate(110.488 144.781)"/></g></svg>