<svg xmlns="http://www.w3.org/2000/svg" width="51.631" height="243.136" viewBox="0 0 51.631 243.136"><defs><style>.a{fill:#fff;}.b{fill:#ff00eb;}.c{fill:#7af99c;}</style></defs><g transform="translate(-306 -271.268)"><g transform="translate(355.745 353.669)"><rect class="a" width="1.886" height="135.386"/></g><g transform="translate(311 297.399)"><rect class="a" width="1.641" height="160.491"/></g><g transform="translate(334.684 313.5)"><rect class="a" width="1.641" height="108"/></g><g transform="matrix(0.899, 0.438, -0.438, 0.899, 322.219, 463.934)"><path class="b" d="M760.057,395.073c.03.334.062.644.085.955a4.514,4.514,0,0,1-.308,2.351,4.017,4.017,0,0,1-3.4,2.279,1.9,1.9,0,0,1-1.856-1.082c-.29-.5-.511-1.05-.752-1.582a24.359,24.359,0,0,0-2.166-3.887.559.559,0,0,0-.5-.255A9.7,9.7,0,0,1,745.8,392.4c-.486-.341-.919-.757-1.39-1.123a.727.727,0,0,0-.435-.172,6.946,6.946,0,0,1-5.462-2.034.937.937,0,0,0-.414-.193,8.059,8.059,0,0,1-6.4-6.684,7.916,7.916,0,0,1,2.768-7.7,1.052,1.052,0,0,0,.378-.638,8.5,8.5,0,0,1,7.715-6.91.866.866,0,0,0,.671-.354,8.046,8.046,0,0,1,9.787-2.087.977.977,0,0,0,.792.059,7.129,7.129,0,0,1,7.363,1.743,1.223,1.223,0,0,0,.686.358,7.285,7.285,0,0,1,6.263,6.34,2.833,2.833,0,0,0,.718,1.645,7.981,7.981,0,0,1,.882,9.312,1.3,1.3,0,0,0-.148.629,7.187,7.187,0,0,1-3.947,6.8.892.892,0,0,0-.412.448,5.355,5.355,0,0,1-4.642,3.212c-.089.009-.179.016-.269.02s-.151,0-.252,0m5.63-22.266c-.019-.079-.039-.186-.069-.29a4.934,4.934,0,0,0-4.435-3.536,1.847,1.847,0,0,1-1.395-.68,4.724,4.724,0,0,0-4.507-1.668,2.935,2.935,0,0,0-2.508,1.747,5.623,5.623,0,0,0-.246.84,1.188,1.188,0,1,1-2.323-.488,5.691,5.691,0,0,1,.884-2.173c.046-.069.08-.145.122-.222a5.614,5.614,0,0,0-6.455,2.184,1.633,1.633,0,0,1-1.523.78,6.135,6.135,0,0,0-5.955,4.515,3.26,3.26,0,0,0,1,3.429,5.423,5.423,0,0,0,.953.6c.246-.46.459-.842.657-1.232a6.011,6.011,0,0,1,3.222-3.161,8.4,8.4,0,0,1,3.362-.414.885.885,0,0,0,.519-.153,5.874,5.874,0,0,1,4.408-.947,1.137,1.137,0,0,1,.97,1.26,1.173,1.173,0,0,1-1.222,1.067c-.282,0-.563-.039-.844-.036a2.605,2.605,0,0,0-2.856,2.339,1.158,1.158,0,0,1-1.345.989,1.2,1.2,0,0,1-.985-1.39c.031-.242.09-.482.143-.759a3.26,3.26,0,0,0-2.63,1.261c-.248.331-.435.708-.653,1.062a16.2,16.2,0,0,1-1.037,1.652,2.041,2.041,0,0,1-2.217.707,4.5,4.5,0,0,1-2.462-1.509c-.382-.46-.688-.983-1.029-1.48-.035.043-.087.1-.134.164a5.921,5.921,0,0,0,3.781,9.349,1.98,1.98,0,0,1,1.234.678,4.58,4.58,0,0,0,5.294,1.034,2.269,2.269,0,0,0,1.075-1.117l-.333-.174a6.982,6.982,0,0,1-1.949-1.489,1.16,1.16,0,0,1-.246-1.256,1.119,1.119,0,0,1,.963-.746,1.423,1.423,0,0,1,1.178.54,4.064,4.064,0,0,0,4.605,1.042,1.163,1.163,0,0,1,1.579.609,1.186,1.186,0,0,1-.688,1.577,5.752,5.752,0,0,1-2.494.5.362.362,0,0,0-.4.259,4.565,4.565,0,0,1-1.429,1.851c-.131.1-.266.2-.422.321.15.1.276.2.407.278a6.867,6.867,0,0,0,3.585.918A6.491,6.491,0,0,0,756.39,389a1.165,1.165,0,0,1,1.543-.314,10.356,10.356,0,0,0,3.876,1.081A4.821,4.821,0,0,0,766,388.159a4.629,4.629,0,0,0,1.115-2.323,1.236,1.236,0,0,0-.158.008,6,6,0,0,1-4.32-.917,1.078,1.078,0,0,1-.507-1.166,1.106,1.106,0,0,1,.817-.938,1.181,1.181,0,0,1,.975.126,4.22,4.22,0,0,0,1.809.608,1.929,1.929,0,0,0,2.13-1.1,5.711,5.711,0,0,0-1.063-6.554,1.559,1.559,0,0,0-.558-.417,4.9,4.9,0,0,0-4.645.411,1.113,1.113,0,0,1-1.48-.162c-.113-.11-.217-.23-.334-.335a3.061,3.061,0,0,0-2.328-.8,1.162,1.162,0,0,1-1.322-1.261,1.217,1.217,0,0,1,1.237-1.1,5.227,5.227,0,0,1,3.495,1.012.406.406,0,0,0,.484.059,5.091,5.091,0,0,1,2.111-.539c.738-.019,1.477.024,2.234.04m-11.53,20.619,2.437,4.8c1.129-.525,1.237-.714,1.205-1.722a15.054,15.054,0,0,0-.993-4.461l-2.65,1.379m5.043-1.7a5.916,5.916,0,0,0,.207.648.438.438,0,0,0,.244.226,2.867,2.867,0,0,0,2.308-.422c-.518-.063-.962-.1-1.4-.174s-.874-.177-1.358-.277" transform="translate(-731.55 -363.67)"/><path class="a" d="M792.889,407.195c-.539-.147-1.083-.279-1.615-.449a.345.345,0,0,0-.412.075,4.609,4.609,0,0,1-5.29.53,1.163,1.163,0,0,1-.448-1.556,1.176,1.176,0,0,1,1.462-.568,6.051,6.051,0,0,0,1.164.322,1.75,1.75,0,0,0,1.842-.92,1.214,1.214,0,0,1,1.954-.435,5.4,5.4,0,0,0,1.06.5,1.022,1.022,0,0,0,1.153-.354,3.443,3.443,0,0,0,.4-.544,1.162,1.162,0,0,1,1.567-.486,1.186,1.186,0,0,1,.51,1.619,4.065,4.065,0,0,1-3.341,2.263" transform="translate(-764.601 -388.1)"/></g><g transform="translate(-61.035 -920.392) rotate(18)"><path class="c" d="M767.5,1125.561a2.89,2.89,0,1,0,2.89,2.889A2.889,2.889,0,0,0,767.5,1125.561Z" transform="translate(-24.206 -82.176)"/><path class="c" d="M754.91,1023.878a10.95,10.95,0,0,0-8.276-8.364c-4.588-1.211-9.873.4-12.5,4.455a11.592,11.592,0,0,0-1.829,4.633c-.217,1.665-.551,4.318.511,5.755a3.105,3.105,0,0,0,2.587,1.23,2.791,2.791,0,0,0,2.665-1.87c.487-1.443-.193-2.965.211-4.4a5.68,5.68,0,0,1,2.467-3.2,6.1,6.1,0,0,1,5.293-.4,6.757,6.757,0,0,1,2.372,1.994,4.649,4.649,0,0,1,.848,2.7,5.229,5.229,0,0,1-.757,2.7l.022,0a5.631,5.631,0,0,1-.807,1.06l-5.289,5.416c-3.323,3.468-.65,5.418-.65,5.418,2.456,1.878,4.913-.578,4.913-.578l4.045-4.046a18.274,18.274,0,0,0,2.831-3.952A12.735,12.735,0,0,0,754.91,1023.878Z"/></g></g></svg>