<svg xmlns="http://www.w3.org/2000/svg" width="472.096" height="529.935" viewBox="0 0 472.096 529.935"><defs><style>.a{opacity:0.998;}.b{fill:#ff4545;}.c{fill:#7af99c;}.d{fill:#ff00eb;}.e{fill:#0e0c5a;}.f{opacity:0.997;isolation:isolate;}</style></defs><g transform="translate(57.757 -34.129)"><g class="a"><ellipse class="b" cx="8.151" cy="3.383" rx="8.151" ry="3.383" transform="translate(-52.778 457.283) rotate(-29.477)"/><path class="b" d="M410.14,372.754c-6.187-16.1-16.954-26.933-24.048-24.206A6.466,6.466,0,0,0,384,349.885c-1.983-4.946-4.974-8.118-7.53-7.552-3.285.732-4.6,7.364-2.949,14.817,1.387,6.234,4.416,11.065,7.293,12.049a65.362,65.362,0,0,0,3.636,13.424c6.186,16.1,16.953,26.933,24.047,24.2S416.327,388.843,410.14,372.754Z"/><path class="b" d="M86.295,338.816a44.233,44.233,0,0,0,9.94-9.3,19.4,19.4,0,0,0,5.85-1.881c4.966-2.458,8.116-6.227,7.03-8.416-.964-1.945-4.944-1.985-9.3-.245a4.613,4.613,0,0,0-.622-1.3c-3.154-4.529-14.035-2.4-24.308,4.745s-16.047,16.617-12.9,21.145S76.022,345.967,86.295,338.816Z"/><path class="b" d="M262.418,290.615l-.251-.038a1.883,1.883,0,0,0-1.014,3.592c34.01,15.051,59.929,42.39,72.11,74.885a1.882,1.882,0,0,1-3.437,1.519,132.7,132.7,0,0,0-33.688-41.58,1.883,1.883,0,0,0-2.666,2.637,99.107,99.107,0,0,1,17.364,30.147c-13.4-30.354-43-53.864-80.1-59.541-42.275-6.468-82.177,12.06-102.57,43.934a1.867,1.867,0,0,1-1.595.864q-1.1-.009-2.186,0a1.884,1.884,0,0,1-1.67-2.8A95.565,95.565,0,0,1,160.1,307.39a1.883,1.883,0,0,0-1.517-3.432c-26.495,9-49.309,25.656-64.93,47.591a1.834,1.834,0,0,1-.929.682c-33.58,10.976-59.435,38.423-64.833,73.7-4.315,28.2,5.34,55.541,24.081,75.852a1.881,1.881,0,0,1-2.614,2.7c-23.336-20.762-36.015-51.253-31.184-82.829a89.292,89.292,0,0,1,28.2-52.389,1.882,1.882,0,0,0-2.25-2.993C20.691,380.12,3.729,403.059-.526,430.867-8.38,482.2,30.046,530.669,85.3,539.124a106.9,106.9,0,0,0,48.557-3.66,1.716,1.716,0,0,1,.455-.079q5.136-.194,10.236-.881a1.835,1.835,0,0,1,1.061.174,145.26,145.26,0,0,0,42.711,13.46,143.539,143.539,0,0,0,69.187-6.206,1.755,1.755,0,0,1,.436-.091c60.348-4.822,110.942-47.253,119.875-105.641C388.391,367.159,336.72,301.984,262.418,290.615Z"/><ellipse class="b" cx="3.942" cy="1.635" rx="3.942" ry="1.635" transform="translate(-53.263 448.878) rotate(-20.378)"/><ellipse class="b" cx="1.102" cy="0.458" rx="1.102" ry="0.458" transform="translate(-45.376 453.33) rotate(-20.378)"/><ellipse class="b" cx="5.487" cy="2.277" rx="5.487" ry="2.277" transform="translate(-57.757 457.766) rotate(-20.378)"/><ellipse class="b" cx="1.636" cy="3.943" rx="1.636" ry="3.943" transform="matrix(0.664, -0.748, 0.748, 0.664, 389.884, 475.123)"/><ellipse class="b" cx="0.458" cy="1.102" rx="0.458" ry="1.102" transform="matrix(0.664, -0.748, 0.748, 0.664, 393.251, 480.513)"/><ellipse class="b" cx="4.773" cy="11.503" rx="4.773" ry="11.503" transform="matrix(0.664, -0.748, 0.748, 0.664, 370.15, 475.272)"/><ellipse class="b" cx="5.749" cy="2.386" rx="5.749" ry="2.386" transform="translate(19.634 360.034) rotate(-29.477)"/><ellipse class="b" cx="1.334" cy="3.216" rx="1.334" ry="3.216" transform="matrix(0.664, -0.748, 0.748, 0.664, 379.973, 491.015)"/><ellipse class="b" cx="2.43" cy="1.008" rx="2.43" ry="1.008" transform="translate(21.343 373.775) rotate(-29.477)"/><ellipse class="b" cx="4.256" cy="1.766" rx="4.256" ry="1.766" transform="translate(28.213 350.123) rotate(-29.477)"/><ellipse class="b" cx="2.277" cy="5.488" rx="2.277" ry="5.488" transform="matrix(0.664, -0.748, 0.748, 0.664, 380.505, 474.751)"/></g><path class="b" d="M318.478,208.687l10.26-3.392a4.418,4.418,0,0,0,0-8.394l-10.26-3.392a4.419,4.419,0,0,1-2.808-2.808l-3.392-10.26a4.418,4.418,0,0,0-8.389,0L300.5,190.7a4.421,4.421,0,0,1-2.808,2.808L287.424,196.9a4.418,4.418,0,0,0,0,8.394l10.265,3.392a4.421,4.421,0,0,1,2.808,2.808l3.392,10.265a4.418,4.418,0,0,0,8.389,0l3.392-10.265A4.419,4.419,0,0,1,318.478,208.687Z"/><path class="c" d="M288.224,256.393l3.8-1.257a1.634,1.634,0,0,0,0-3.107l-3.8-1.257a1.63,1.63,0,0,1-1.036-1.036l-1.257-3.8a1.634,1.634,0,0,0-3.107,0l-1.252,3.8a1.64,1.64,0,0,1-1.04,1.036l-3.8,1.257a1.635,1.635,0,0,0,0,3.107l3.8,1.257a1.641,1.641,0,0,1,1.04,1.041l1.252,3.794a1.634,1.634,0,0,0,3.107,0l1.257-3.794A1.63,1.63,0,0,1,288.224,256.393Z"/><path class="b" d="M263.487,63.21l9.539-3.154a4.107,4.107,0,0,0,0-7.8L263.487,49.1a4.112,4.112,0,0,1-2.611-2.611l-3.153-9.539a4.108,4.108,0,0,0-7.8,0l-3.154,9.539a4.107,4.107,0,0,1-2.611,2.611l-9.543,3.154a4.107,4.107,0,0,0,0,7.8l9.543,3.154a4.105,4.105,0,0,1,2.611,2.611l3.154,9.543a4.107,4.107,0,0,0,7.8,0l3.153-9.543A4.11,4.11,0,0,1,263.487,63.21Z"/><path class="b" d="M235.358,107.564l3.533-1.168a1.52,1.52,0,0,0,0-2.889l-3.533-1.168a1.519,1.519,0,0,1-.963-.963l-1.168-3.533a1.52,1.52,0,0,0-2.889,0l-1.164,3.533a1.526,1.526,0,0,1-.968.963l-3.528,1.168a1.52,1.52,0,0,0,0,2.889l3.528,1.168a1.531,1.531,0,0,1,.968.968l1.164,3.528a1.52,1.52,0,0,0,2.889,0l1.168-3.528A1.522,1.522,0,0,1,235.358,107.564Z"/><path class="b" d="M39.685,148.71l-12.423-4.06a5.272,5.272,0,0,1,0-10.049l12.423-4.06a5.323,5.323,0,0,0,3.4-3.361L47.191,114.9a5.368,5.368,0,0,1,10.158,0l4.107,12.282a5.319,5.319,0,0,0,3.4,3.361l12.428,4.06a5.271,5.271,0,0,1,0,10.049l-12.428,4.06a5.317,5.317,0,0,0-3.4,3.361l-4.107,12.287a5.368,5.368,0,0,1-10.158,0l-4.106-12.287A5.321,5.321,0,0,0,39.685,148.71Z"/><path class="d" d="M76.315,205.815l-4.6-1.5a1.95,1.95,0,0,1,0-3.72l4.6-1.5a1.964,1.964,0,0,0,1.255-1.24l1.521-4.548a1.985,1.985,0,0,1,3.762,0l1.516,4.548a1.976,1.976,0,0,0,1.26,1.24l4.594,1.5a1.951,1.951,0,0,1,0,3.72l-4.594,1.5a1.979,1.979,0,0,0-1.26,1.246L82.853,211.6a1.986,1.986,0,0,1-3.762,0l-1.521-4.542A1.971,1.971,0,0,0,76.315,205.815Z"/><circle class="b" cx="37.215" cy="37.215" r="37.215" transform="translate(69.117 489.633)"/><circle class="b" cx="37.215" cy="37.215" r="37.215" transform="translate(157.184 489.633)"/><circle class="b" cx="37.215" cy="37.215" r="37.215" transform="translate(245.252 489.633)"/><path class="e" d="M106.5,500.7a20.7,20.7,0,1,1-20.725,20.681v-.038A20.725,20.725,0,0,1,106.5,500.7M101.79,523.04c-.374,1.156-.757,2.272-1.1,3.4a1.77,1.77,0,0,0,.766,2.028,1.883,1.883,0,0,0,2.265-.111c.931-.664,1.851-1.339,2.766-2.005.957.707,1.855,1.4,2.776,2.05a1.876,1.876,0,0,0,3.037-1.052,2.407,2.407,0,0,0-.1-1.136c-.31-1.062-.675-2.11-1.018-3.166l.568-.4c.748-.522,1.513-1.022,2.24-1.572a1.815,1.815,0,0,0,.11-2.989,2.546,2.546,0,0,0-1.357-.425c-1.124-.059-2.256-.02-3.374-.02-.353-1.1-.686-2.148-1.026-3.188a1.9,1.9,0,0,0-3.711-.02c-.295.9-.6,1.793-.863,2.7-.11.375-.251.542-.683.522a28.381,28.381,0,0,0-2.888,0,2.52,2.52,0,0,0-1.273.385,1.838,1.838,0,0,0,.121,3.083c.887.645,1.794,1.257,2.74,1.911"/><path class="e" d="M87.209,536.441a24.17,24.17,0,0,0,11.638,8.24c-1.07,2.515-2.126,5.008-3.188,7.5a1.877,1.877,0,0,1-3.565-.111c-.75-2.061-1.539-4.109-2.2-6.2-.3-.952-.692-1.409-1.778-1.435-2.038-.047-4.073-.283-6.108-.45a1.921,1.921,0,0,1-1.815-1.5,1.862,1.862,0,0,1,.913-2.026c2.014-1.329,4.033-2.653,6.114-4.018"/><path class="e" d="M114.1,544.747c1.281-.58,2.563-1.1,3.786-1.726a23.159,23.159,0,0,0,7.513-6.143c.251-.311.418-.371.773-.134,1.851,1.242,3.725,2.449,5.58,3.675a1.934,1.934,0,0,1,.964,2.15,2.011,2.011,0,0,1-1.883,1.439c-2.255.173-4.511.349-6.775.5a.71.71,0,0,0-.726.546c-.8,2.292-1.636,4.583-2.457,6.861a1.9,1.9,0,0,1-3.688.13q-1.3-3.051-2.591-6.106c-.171-.4-.349-.8-.518-1.2"/><g class="f"><path class="e" d="M287.791,545.932c-.039.421-.07.813-.112,1.2a5.693,5.693,0,0,1-.918,2.846,5.066,5.066,0,0,1-4.737,2.052,2.4,2.4,0,0,1-2.056-1.765c-.246-.687-.394-1.419-.572-2.134a30.755,30.755,0,0,0-1.8-5.316.7.7,0,0,0-.562-.43,12.25,12.25,0,0,1-6.318-3.023c-.525-.534-.967-1.149-1.468-1.71a.915.915,0,0,0-.5-.313,8.763,8.763,0,0,1-6.312-3.768,1.176,1.176,0,0,0-.469-.334,10.163,10.163,0,0,1-6.415-9.751,9.982,9.982,0,0,1,5.189-8.92,1.323,1.323,0,0,0,.614-.705,10.72,10.72,0,0,1,11.146-6.813,1.091,1.091,0,0,0,.913-.286,10.147,10.147,0,0,1,12.616-.357,1.23,1.23,0,0,0,.969.253,8.992,8.992,0,0,1,8.736,3.841,1.542,1.542,0,0,0,.77.6,9.187,9.187,0,0,1,6.323,9.292,3.574,3.574,0,0,0,.516,2.205,10.066,10.066,0,0,1-1.029,11.752,1.624,1.624,0,0,0-.327.746,9.067,9.067,0,0,1-6.447,7.536,1.123,1.123,0,0,0-.613.461,6.754,6.754,0,0,1-6.491,2.926c-.112-.009-.226-.021-.338-.036s-.187-.035-.313-.058m12.061-26.336c-.006-.1-.006-.24-.019-.376a6.226,6.226,0,0,0-4.7-5.4,2.328,2.328,0,0,1-1.575-1.162,5.958,5.958,0,0,0-5.211-3.1,3.7,3.7,0,0,0-3.509,1.6,7.109,7.109,0,0,0-.5.986,1.5,1.5,0,0,1-2.82-1.013c.015-.042.032-.082.05-.122a7.185,7.185,0,0,1,1.592-2.494c.073-.075.132-.162.2-.248a7.08,7.08,0,0,0-8.505,1.238,2.059,2.059,0,0,1-2.067.62,7.738,7.738,0,0,0-8.417,4.243,4.111,4.111,0,0,0,.459,4.481,6.806,6.806,0,0,0,1.045.962c.41-.515.762-.94,1.1-1.378a7.581,7.581,0,0,1,4.718-3.187,10.6,10.6,0,0,1,4.265.253,1.112,1.112,0,0,0,.678-.071,7.4,7.4,0,0,1,5.684-.17,1.434,1.434,0,0,1,.916,1.784,1.479,1.479,0,0,1-1.759,1.045c-.35-.064-.69-.177-1.039-.237a3.285,3.285,0,0,0-4.072,2.237l0,.013a1.461,1.461,0,0,1-1.84.939l-.054-.019a1.513,1.513,0,0,1-.909-1.937l0-.012c.094-.293.222-.577.351-.908a4.11,4.11,0,0,0-3.55.964c-.383.354-.7.779-1.052,1.169a20.519,20.519,0,0,1-1.663,1.812,2.573,2.573,0,0,1-2.912.372,5.68,5.68,0,0,1-2.71-2.433c-.369-.658-.629-1.376-.939-2.071-.053.046-.13.1-.2.173a7.468,7.468,0,0,0,2.558,12.459,2.5,2.5,0,0,1,1.377,1.123,5.776,5.776,0,0,0,6.331,2.489,2.86,2.86,0,0,0,1.588-1.14l-.373-.292a8.819,8.819,0,0,1-2.079-2.291,1.464,1.464,0,0,1-.018-1.614,1.41,1.41,0,0,1,1.364-.706,1.8,1.8,0,0,1,1.339.938,5.124,5.124,0,0,0,5.474,2.343,1.467,1.467,0,0,1,1.8,1.031c.007.028.014.056.02.084a1.5,1.5,0,0,1-1.136,1.785l-.077.015a7.251,7.251,0,0,1-3.208.051.456.456,0,0,0-.555.23,5.753,5.753,0,0,1-2.2,1.97c-.185.095-.375.188-.6.3.163.159.3.311.441.438a8.658,8.658,0,0,0,4.238,1.956,8.188,8.188,0,0,0,7.45-1.755,1.47,1.47,0,0,1,1.986-.038,13.068,13.068,0,0,0,4.561,2.225,6.081,6.081,0,0,0,5.566-1.04,5.838,5.838,0,0,0,1.912-2.627,1.45,1.45,0,0,0-.2-.026,7.569,7.569,0,0,1-5.15-2.122,1.359,1.359,0,0,1-.363-1.562,1.4,1.4,0,0,1,1.227-.978,1.491,1.491,0,0,1,1.181.379,5.329,5.329,0,0,0,2.1,1.167,2.434,2.434,0,0,0,2.893-.879,7.2,7.2,0,0,0,.176-8.373,1.967,1.967,0,0,0-.6-.644,6.18,6.18,0,0,0-5.856-.549,1.4,1.4,0,0,1-1.8-.539c-.115-.162-.216-.335-.338-.491a3.862,3.862,0,0,0-2.7-1.524,1.464,1.464,0,0,1-1.407-1.521,1.427,1.427,0,0,1,.055-.344,1.536,1.536,0,0,1,1.785-1.083,6.591,6.591,0,0,1,4.1,2.053.513.513,0,0,0,.587.183,6.433,6.433,0,0,1,2.742-.187c.92.144,1.827.366,2.762.559m-19,22.948,1.929,6.51c1.52-.394,1.7-.6,1.887-1.862a19,19,0,0,0-.214-5.76l-3.6,1.107m6.643-.959a7.642,7.642,0,0,0,.109.851.56.56,0,0,0,.251.336,3.619,3.619,0,0,0,2.96,0c-.629-.2-1.171-.344-1.7-.535s-1.044-.419-1.622-.654"/><path class="e" d="M290.326,530.614c-.635-.3-1.28-.593-1.9-.925a.437.437,0,0,0-.528,0,5.814,5.814,0,0,1-6.683-.548,1.468,1.468,0,0,1-.2-2.033,1.484,1.484,0,0,1,1.943-.371,7.569,7.569,0,0,0,1.37.665,2.207,2.207,0,0,0,2.5-.721,1.531,1.531,0,0,1,2.523-.094,6.837,6.837,0,0,0,1.2.862,1.289,1.289,0,0,0,1.511-.177,4.327,4.327,0,0,0,.62-.583,1.466,1.466,0,0,1,2.055-.246,1.5,1.5,0,0,1,.286,2.1l-.023.029a5.125,5.125,0,0,1-4.66,2.045"/></g><g class="f"><path class="e" d="M193.645,547.256a4.467,4.467,0,1,0,4.408,4.525v0a4.464,4.464,0,0,0-4.406-4.523Z"/><path class="e" d="M211.992,517.34a16.927,16.927,0,0,0-12.622-13.094c-7.067-1.964-15.268.419-19.41,6.633A17.925,17.925,0,0,0,177.04,518c-.369,2.569-.939,6.663.673,8.905a4.8,4.8,0,0,0,3.974,1.954,4.314,4.314,0,0,0,4.157-2.837c.781-2.22-.239-4.586.415-6.8a8.774,8.774,0,0,1,3.877-4.9,9.428,9.428,0,0,1,8.189-.512,10.453,10.453,0,0,1,3.626,3.13,7.185,7.185,0,0,1,1.256,4.19,8.075,8.075,0,0,1-1.225,4.158h.034a8.73,8.73,0,0,1-1.268,1.622l-8.284,8.264c-5.206,5.293-1.114,8.36-1.114,8.36,3.758,2.953,7.6-.794,7.6-.794l6.333-6.171a28.269,28.269,0,0,0,4.456-6.051A19.685,19.685,0,0,0,211.992,517.34Z"/></g></g></svg>