<svg xmlns="http://www.w3.org/2000/svg" width="26.671" height="193.206" viewBox="0 0 26.671 193.206"><defs><style>.a{fill:#fff;}.b{fill:#ff4545;}</style></defs><g transform="translate(-30.329 -151)"><g transform="translate(47 185.781)"><rect class="a" width="1.331" height="110.033"/></g><g transform="translate(30.329 198.188)"><rect class="a" width="1.331" height="146.019" transform="translate(0 0)"/></g><g transform="translate(-1165.72 -215.588)"><path class="b" d="M1216.541,366.588a10.389,10.389,0,1,1-10.4,10.359,10.4,10.4,0,0,1,10.4-10.359m-2.364,11.208c-.188.58-.38,1.14-.55,1.707a.888.888,0,0,0,.384,1.018.946.946,0,0,0,1.137-.056c.467-.333.929-.672,1.388-1.006.48.355.931.7,1.393,1.029a.942.942,0,0,0,1.524-.528,1.211,1.211,0,0,0-.049-.57c-.156-.533-.339-1.059-.511-1.589l.285-.2c.375-.262.759-.513,1.124-.789a.911.911,0,0,0,.055-1.5,1.276,1.276,0,0,0-.681-.213c-.564-.03-1.132-.01-1.693-.01-.177-.553-.344-1.078-.515-1.6a.955.955,0,0,0-1.862-.01c-.148.45-.3.9-.433,1.354-.055.188-.126.272-.343.262a14.137,14.137,0,0,0-1.449,0,1.268,1.268,0,0,0-.639.193.922.922,0,0,0,.061,1.547c.445.324.9.631,1.375.959" transform="translate(-7.011 0)"/><path class="b" d="M1199.849,428.827a12.131,12.131,0,0,0,5.84,4.135c-.537,1.262-1.067,2.513-1.6,3.762a.942.942,0,0,1-1.789-.056c-.376-1.034-.772-2.062-1.106-3.11-.152-.478-.347-.707-.892-.72-1.023-.024-2.044-.142-3.065-.226a.964.964,0,0,1-.911-.751.935.935,0,0,1,.458-1.017c1.011-.667,2.024-1.331,3.068-2.016" transform="translate(0 -44.306)"/><path class="b" d="M1255.458,433.193c.643-.291,1.286-.552,1.9-.866a11.62,11.62,0,0,0,3.77-3.083c.126-.156.21-.186.388-.067.929.623,1.869,1.229,2.8,1.844a.971.971,0,0,1,.484,1.079,1.01,1.01,0,0,1-.945.722c-1.132.087-2.264.175-3.4.25a.356.356,0,0,0-.364.274c-.4,1.15-.821,2.3-1.233,3.443a.956.956,0,0,1-1.851.065q-.651-1.531-1.3-3.064c-.086-.2-.175-.4-.26-.6" transform="translate(-42.115 -44.504)"/></g></g></svg>